<svg id="Grupo_9765" data-name="Grupo 9765" xmlns="http://www.w3.org/2000/svg" xmlns:xlink="http://www.w3.org/1999/xlink" width="25.112" height="21.656" viewBox="0 0 25.112 21.656">
  <defs>
    <clipPath id="clip-path">
      <path id="Trazado_1237" data-name="Trazado 1237" d="M0-44.64H25.112v21.656H0Z" transform="translate(0 44.64)" fill="#cacaca"/>
    </clipPath>
  </defs>
  <g id="Grupo_1997" data-name="Grupo 1997" clip-path="url(#clip-path)">
    <g id="Grupo_1995" data-name="Grupo 1995" transform="translate(9.149 6.431)">
      <path id="Trazado_1235" data-name="Trazado 1235" d="M-16.774-4.425a17.629,17.629,0,0,0-4.7-4.169l-1.715,1.715a15.365,15.365,0,0,1,3.773,2.955A14.222,14.222,0,0,1-26.141.193a5.084,5.084,0,0,0,2.085-4.116,5.022,5.022,0,0,0-.317-1.794l-8.206,8.206a14.246,14.246,0,0,0,3.43.4c6.913,0,11.135-4.749,12.375-6.332a.831.831,0,0,0,0-.976" transform="translate(32.579 8.594)" fill="#cacaca"/>
    </g>
    <g id="Grupo_1996" data-name="Grupo 1996" transform="translate(0 0)">
      <path id="Trazado_1236" data-name="Trazado 1236" d="M-3.045-11.782A14.224,14.224,0,0,1,3.683-15.9,5.082,5.082,0,0,0,1.6-11.782a5.219,5.219,0,0,0,.449,2.111l-1,1a14.513,14.513,0,0,1-4.09-3.113m19.6-10.765a1.2,1.2,0,0,0-1.663,0l-4.459,4.459a14.4,14.4,0,0,0-3.8-.5C-.275-18.59-4.5-13.84-5.736-12.257a.794.794,0,0,0,0,1A17.015,17.015,0,0,0-.75-6.928L-4.443-3.234a1.2,1.2,0,0,0,0,1.663,1.139,1.139,0,0,0,.817.342,1.1,1.1,0,0,0,.818-.342L16.506-20.885a1.109,1.109,0,0,0,.053-1.663" transform="translate(5.915 22.884)" fill="#cacaca"/>
    </g>
  </g>
</svg>
