<svg xmlns="http://www.w3.org/2000/svg" xmlns:xlink="http://www.w3.org/1999/xlink" viewBox="0 0 23 23">
  <defs>
    <style>
      .cls-1, .cls-3 {
        fill: #fff;
      }

      .cls-1 {
        opacity: 0.8;
      }

      .cls-2 {
        clip-path: url(#clip-path);
      }
    </style>
    <clipPath id="clip-path">
      <path id="Path_1249" data-name="Path 1249" class="cls-1" d="M0-44.5H23v23H0Z" transform="translate(0 44.496)"/>
    </clipPath>
  </defs>
  <g id="Group_8666" data-name="Group 8666" transform="translate(0 0)">
    <g id="Group_2015" data-name="Group 2015" class="cls-2" transform="translate(0 0)">
      <g id="Group_2014" data-name="Group 2014" transform="translate(0 0)">
        <path id="Path_1248" data-name="Path 1248" class="cls-3" d="M-9.25-5.317a1.425,1.425,0,0,1,1.6-1.622,1.424,1.424,0,0,1,1.6,1.622,1.416,1.416,0,0,1-1.6,1.6,1.416,1.416,0,0,1-1.6-1.6m4.7,2.957v4.7H-5.86V7.928H-9.434V2.343h-1.314v-4.7a.713.713,0,0,1,.216-.524.715.715,0,0,1,.524-.215h4.723a.724.724,0,0,1,.513.215.7.7,0,0,1,.226.524M-7.627-8.931A8.954,8.954,0,0,0-14.26-6.179,9.256,9.256,0,0,0-17.074.5a9.035,9.035,0,0,0,2.792,6.611A9.083,9.083,0,0,0-7.628,9.9,9.23,9.23,0,0,0-.933,7.087,8.759,8.759,0,0,0,1.778.494,9.093,9.093,0,0,0-.974-6.18,9.066,9.066,0,0,0-7.627-8.931m-.04-2.074A11.111,11.111,0,0,1,.505-7.678,11.125,11.125,0,0,1,3.852.5,10.839,10.839,0,0,1,.566,8.565,11.363,11.363,0,0,1-7.668,12a11.131,11.131,0,0,1-8.091-3.389A11.068,11.068,0,0,1-19.147.5a11.27,11.27,0,0,1,3.388-8.173,11.01,11.01,0,0,1,8.091-3.327" transform="translate(19.147 11.005)"/>
      </g>
    </g>
  </g>
</svg>
