<svg xmlns="http://www.w3.org/2000/svg" xmlns:xlink="http://www.w3.org/1999/xlink" viewBox="0 0 23 23">
  <defs>
    <style>
      .cls-1 {
        fill: #fff;
      }

      .cls-2 {
        clip-path: url(#clip-path);
      }
    </style>
    <clipPath id="clip-path">
      <path id="Path_1102" data-name="Path 1102" class="cls-1" d="M0-65.863H23v23H0Z" transform="translate(0 65.863)"/>
    </clipPath>
  </defs>
  <g id="Group_8665" data-name="Group 8665" transform="translate(-300.008 -2.552)">
    <g id="Group_1599" data-name="Group 1599" class="cls-2" transform="translate(300.008 2.552)">
      <g id="Group_1596" data-name="Group 1596" transform="translate(4.323 7.502)">
        <path id="Path_1099" data-name="Path 1099" class="cls-1" d="M-11.458-10.224a.831.831,0,0,0-.567.222,2.322,2.322,0,0,1-1.583.621,2.334,2.334,0,0,1-2.331-2.331,2.334,2.334,0,0,1,2.331-2.331,2.325,2.325,0,0,1,1.583.62.83.83,0,0,0,.566.222.838.838,0,0,0,.613-.268.83.83,0,0,0,.221-.6.829.829,0,0,0-.267-.58,3.985,3.985,0,0,0-2.715-1.063,4,4,0,0,0-4,4,4,4,0,0,0,4,4,3.988,3.988,0,0,0,2.717-1.065.835.835,0,0,0,.045-1.178.836.836,0,0,0-.612-.267" transform="translate(17.606 15.711)"/>
      </g>
      <g id="Group_1597" data-name="Group 1597" transform="translate(11.547 7.502)">
        <path id="Path_1100" data-name="Path 1100" class="cls-1" d="M-12.6-10.723a.837.837,0,0,0-.612-.267.83.83,0,0,0-.566.222,2.324,2.324,0,0,1-1.584.621,2.333,2.333,0,0,1-2.331-2.331,2.333,2.333,0,0,1,2.331-2.331,2.323,2.323,0,0,1,1.582.62.833.833,0,0,0,.566.222.837.837,0,0,0,.613-.268.828.828,0,0,0,.221-.6.83.83,0,0,0-.267-.58,3.986,3.986,0,0,0-2.715-1.063,4,4,0,0,0-4,4,4,4,0,0,0,4,4,3.991,3.991,0,0,0,2.717-1.064.835.835,0,0,0,.045-1.179" transform="translate(19.359 16.477)"/>
      </g>
      <g id="Group_1598" data-name="Group 1598" transform="translate(0 0)">
        <path id="Path_1101" data-name="Path 1101" class="cls-1" d="M-21.431-39.032a9.571,9.571,0,0,1-9.445-9.445,9.571,9.571,0,0,1,9.445-9.445,9.571,9.571,0,0,1,9.445,9.445,9.571,9.571,0,0,1-9.445,9.445m0-20.945a11.654,11.654,0,0,0-11.5,11.5,11.654,11.654,0,0,0,11.5,11.5,11.654,11.654,0,0,0,11.5-11.5,11.654,11.654,0,0,0-11.5-11.5" transform="translate(32.931 59.977)"/>
      </g>
    </g>
  </g>
</svg>
