<svg xmlns="http://www.w3.org/2000/svg" viewBox="0 0 23 23">
  <defs>
    <style>
      .cls-1 {
        fill: none;
        stroke-miterlimit: 10;
      }

      .cls-1, .cls-3 {
        stroke: #fff;
        stroke-width: 2px;
      }

      .cls-2, .cls-3 {
        fill: #fff;
      }
    </style>
  </defs>
  <g id="Group_8669" data-name="Group 8669" transform="translate(-382.5 -2261.5)">
    <g id="Group_3575" data-name="Group 3575">
      <circle id="Ellipse_45" data-name="Ellipse 45" class="cls-1" cx="10.5" cy="10.5" r="10.5" transform="translate(383.5 2262.5)"/>
      <path id="Path_1928" data-name="Path 1928" class="cls-2" d="M19.844,15.357a2.644,2.644,0,0,0-.558-1.813,3.125,3.125,0,0,0-1.394-.883c-.558-.139-1.069-.279-1.627-.418a4.846,4.846,0,0,1-1.394-.558,1.352,1.352,0,0,1-.558-1.162,1.413,1.413,0,0,1,.465-1.162,1.838,1.838,0,0,1,1.255-.372,1.605,1.605,0,0,1,1.72,1.441h1.906a2.724,2.724,0,0,0-1.069-2.092,4.072,4.072,0,0,0-1.906-.7V6.2H15.428V7.641a3.711,3.711,0,0,0-1.906.79,2.791,2.791,0,0,0-.976,2.231,2.522,2.522,0,0,0,.325,1.348,1.969,1.969,0,0,0,.79.837,7.416,7.416,0,0,0,1.069.465,11.641,11.641,0,0,0,1.208.325,7.184,7.184,0,0,1,1.069.325,1.566,1.566,0,0,1,.79.511,1.534,1.534,0,0,1,.325.976,1.39,1.39,0,0,1-.511,1.069,1.878,1.878,0,0,1-1.394.465,1.951,1.951,0,0,1-1.348-.418,1.577,1.577,0,0,1-.511-1.116H12.5a2.464,2.464,0,0,0,1.023,2.138,3.891,3.891,0,0,0,1.859.7v1.162h1.255V18.331a3.719,3.719,0,0,0,2.185-.883A2.68,2.68,0,0,0,19.844,15.357Z" transform="translate(377.5 2259.8)"/>
    </g>
    <path id="Path_10178" data-name="Path 10178" class="cls-3" d="M0,0,18,10" transform="translate(385.5 2267.5)"/>
  </g>
</svg>
