<svg id="Group_8667" data-name="Group 8667" xmlns="http://www.w3.org/2000/svg" viewBox="0 0 22.905 22.905">
  <defs>
    <style>
      .cls-1 {
        fill: #fff;
      }
    </style>
  </defs>
  <path id="Path_1246" data-name="Path 1246" class="cls-1" d="M-6-9.272a5.109,5.109,0,0,1,1.7-3.262A5,5,0,0,1-.965-13.69a5.548,5.548,0,0,1,4.3,1.738A6.34,6.34,0,0,1,4.925-7.493,6.13,6.13,0,0,1,3.27-3.107a5.656,5.656,0,0,1-4.3,1.749A5.1,5.1,0,0,1-4.38-2.524a4.952,4.952,0,0,1-1.7-3.313h2.885q.1,2.086,2.515,2.086A2.273,2.273,0,0,0,1.265-4.794,4.729,4.729,0,0,0,2-7.575a4.768,4.768,0,0,0-.675-2.772A2.236,2.236,0,0,0-.616-11.3,2.247,2.247,0,0,0-3.193-9.273h.838L-4.624-7l-2.271-2.27Zm5.113-7.771a8.88,8.88,0,0,0-6.6,2.761,9.145,9.145,0,0,0-2.8,6.626A8.96,8.96,0,0,0-7.509-1.071,9.047,9.047,0,0,0-.883,1.71a9.192,9.192,0,0,0,6.667-2.8,8.765,8.765,0,0,0,2.7-6.565,8.941,8.941,0,0,0-2.74-6.626A8.946,8.946,0,0,0-.882-17.043m-.041-2.066a11.074,11.074,0,0,1,8.139,3.334A11.01,11.01,0,0,1,10.55-7.656,10.907,10.907,0,0,1,7.277.4,11.306,11.306,0,0,1-.923,3.8,11.086,11.086,0,0,1-8.981.421a11.021,11.021,0,0,1-3.374-8.077,11.2,11.2,0,0,1,3.374-8.119A10.976,10.976,0,0,1-.923-19.109" transform="translate(12.355 19.109)"/>
</svg>
