<svg xmlns="http://www.w3.org/2000/svg" viewBox="0 0 59.029 59.029">
  <defs>
    <style>
      .cls-1, .cls-2 {
        fill: none;
      }

      .cls-1 {
        stroke: #0569ef;
        stroke-width: 2px;
      }

      .cls-3 {
        fill: #0073ff;
      }

      .cls-4 {
        stroke: none;
      }
    </style>
  </defs>
  <g id="Group_8641" data-name="Group 8641" transform="translate(-138 -132)">
    <g id="Group_8637" data-name="Group 8637" transform="translate(138 132)">
      <g id="Ellipse_2178" data-name="Ellipse 2178" class="cls-1" transform="translate(0 0)">
        <circle class="cls-4" cx="29.515" cy="29.515" r="29.515"/>
        <circle class="cls-2" cx="29.515" cy="29.515" r="28.515"/>
      </g>
    </g>
    <g id="outline-wallpaper-24px" transform="translate(155 150)">
      <g id="Bounding_Boxes">
        <path id="Path_9773" data-name="Path 9773" class="cls-2" d="M0,0H24V24H0Z"/>
      </g>
      <g id="Outline">
        <path id="Path_9774" data-name="Path 9774" class="cls-3" d="M4,4h7V2H4A2.006,2.006,0,0,0,2,4v7H4Zm6,9L6,18H18l-3-4-2.03,2.71Zm7-4.5A1.5,1.5,0,1,0,15.5,10,1.5,1.5,0,0,0,17,8.5ZM20,2H13V4h7v7h2V4A2.006,2.006,0,0,0,20,2Zm0,18H13v2h7a2.006,2.006,0,0,0,2-2V13H20ZM4,13H2v7a2.006,2.006,0,0,0,2,2h7V20H4Z"/>
      </g>
    </g>
  </g>
</svg>
