<svg xmlns="http://www.w3.org/2000/svg" viewBox="0 0 20.75 20.75">
  <defs>
    <style>
      .cls-1, .cls-2 {
        fill: #0073ff;
      }

      .cls-1 {
        stroke: #0073ff;
        stroke-width: 0.75px;
      }
    </style>
  </defs>
  <g id="Group_8645" data-name="Group 8645" transform="translate(-24.125 -528.777)">
    <path id="Path_8863" data-name="Path 8863" class="cls-1" d="M-55.61-59.126l-.368.315h0v-3.062a3.548,3.548,0,0,0-2.051-3.212l-.217-.1h0l.115-.209a3.9,3.9,0,0,0,.48-1.871,3.9,3.9,0,0,0-3.9-3.9,3.9,3.9,0,0,0-3.9,3.9,3.9,3.9,0,0,0,.369,1.654c.035.074.072.147.111.218l.115.209-.217.1a3.5,3.5,0,0,0-.446.247,3.553,3.553,0,0,0-1.605,2.965v3.062l-.368-.315A9.142,9.142,0,0,1-70.7-66.074a9.158,9.158,0,0,1,9.147-9.148A9.158,9.158,0,0,1-52.4-66.074a9.113,9.113,0,0,1-1.056,4.26,9.2,9.2,0,0,1-2.151,2.688m-8.987-8.14a3.051,3.051,0,0,1,3.047-3.047A3.051,3.051,0,0,1-58.5-67.266a3.051,3.051,0,0,1-3.047,3.047A3.05,3.05,0,0,1-64.6-67.266m7.767,9.023-.11.065c-.237.139-.477.266-.712.377a9.049,9.049,0,0,1-3.9.874,9.048,9.048,0,0,1-3.9-.874c-.235-.111-.475-.238-.712-.377l-.11-.065v-3.631a2.678,2.678,0,0,1,1.882-2.562l.122-.039.095.086a3.886,3.886,0,0,0,2.621,1.021,3.886,3.886,0,0,0,2.621-1.021l.095-.086.122.038a2.675,2.675,0,0,1,1.882,2.562Zm-4.72-17.831a10.011,10.011,0,0,0-10,10,10.011,10.011,0,0,0,10,10,10.011,10.011,0,0,0,10-10,10.012,10.012,0,0,0-10-10" transform="translate(96.05 605.226)"/>
    <path id="Path_8870" data-name="Path 8870" class="cls-2" d="M-6.216-10.164a1.378,1.378,0,0,0-1.005.434l-.217.226-.217-.228a1.38,1.38,0,0,0-1.006-.435,1.378,1.378,0,0,0-1,.435,1.5,1.5,0,0,0-.412,1.039,1.5,1.5,0,0,0,.412,1.039L-7.6-5.483a.228.228,0,0,0,.164.07.225.225,0,0,0,.156-.063l.008-.008,1.032-1.084,1.032-1.084A1.5,1.5,0,0,0-4.8-8.69,1.5,1.5,0,0,0-5.211-9.73a1.378,1.378,0,0,0-1.005-.434" transform="translate(42.405 552.81)"/>
  </g>
</svg>
