<?xml version="1.0" encoding="utf-8"?>
<!-- Generator: Adobe Illustrator 22.0.0, SVG Export Plug-In . SVG Version: 6.00 Build 0)  -->
<svg version="1.1" id="Capa_1" xmlns="http://www.w3.org/2000/svg" xmlns:xlink="http://www.w3.org/1999/xlink" x="0px" y="0px"
	 viewBox="0 0 20.8 20.8" style="enable-background:new 0 0 20.8 20.8;" xml:space="preserve">
<style type="text/css">
	.st0{fill:#505050;stroke:#505050;stroke-width:0.75;}
	.st1{fill:#505050;}
</style>
<g id="Group_8644" transform="translate(-24.125 -528.777)">
	<path id="Path_8863" class="st0" d="M40.4,546.1l-0.4,0.3l0,0v-3.1c0-1.4-0.8-2.6-2.1-3.2l-0.2-0.1l0,0l0.1-0.2
		c0.3-0.6,0.5-1.2,0.5-1.9c0-2.2-1.7-3.9-3.9-3.9c0,0,0,0,0,0c-2.2,0-3.9,1.7-3.9,3.9c0,0.6,0.1,1.1,0.4,1.7c0,0.1,0.1,0.1,0.1,0.2
		l0.1,0.2l-0.2,0.1c-0.2,0.1-0.3,0.2-0.4,0.2c-1,0.7-1.6,1.8-1.6,3v3.1l-0.4-0.3c-2-1.7-3.2-4.3-3.2-6.9c0-5,4.1-9.1,9.1-9.1
		c5.1,0,9.1,4.1,9.2,9.1c0,1.5-0.4,2.9-1.1,4.3C42.1,544.4,41.3,545.3,40.4,546.1 M31.5,538c0-1.7,1.4-3,3-3c1.7,0,3,1.4,3,3
		c0,1.7-1.4,3-3,3C32.8,541,31.5,539.6,31.5,538 M39.2,547l-0.1,0.1c-0.2,0.1-0.5,0.3-0.7,0.4c-1.2,0.6-2.6,0.9-3.9,0.9
		c-1.3,0-2.7-0.3-3.9-0.9c-0.2-0.1-0.5-0.2-0.7-0.4l-0.1-0.1v-3.6c0-1.2,0.8-2.2,1.9-2.6l0.1,0l0.1,0.1c0.7,0.7,1.7,1,2.6,1
		c1,0,1.9-0.4,2.6-1l0.1-0.1l0.1,0c1.1,0.3,1.9,1.4,1.9,2.6L39.2,547z M34.5,529.2c-5.5,0-10,4.5-10,10c0,5.5,4.5,10,10,10
		c5.5,0,10-4.5,10-10C44.5,533.6,40,529.2,34.5,529.2"/>
	<path id="Path_8870" class="st1" d="M36.2,542.6c-0.4,0-0.7,0.2-1,0.4l-0.2,0.2l-0.2-0.2c-0.3-0.3-0.6-0.4-1-0.4
		c-0.4,0-0.7,0.2-1,0.4c-0.3,0.3-0.4,0.7-0.4,1c0,0.4,0.1,0.8,0.4,1l2.1,2.2c0,0,0.1,0.1,0.2,0.1c0.1,0,0.1,0,0.2-0.1l0,0l1-1.1
		l1-1.1c0.3-0.3,0.4-0.7,0.4-1c0-0.4-0.1-0.8-0.4-1C36.9,542.8,36.6,542.6,36.2,542.6"/>
</g>
</svg>
