<svg xmlns="http://www.w3.org/2000/svg" viewBox="0 0 24 24">
  <defs>
    <style>
      .cls-1 {
        fill: none;
      }

      .cls-2 {
        fill: #505050;
      }
    </style>
  </defs>
  <g id="ic_share_black_24px_1_" data-name="ic_share_black_24px (1)" transform="translate(0 0)">
    <path id="Path_8810" data-name="Path 8810" class="cls-1" d="M0,0H24V24H0Z"/>
    <path id="Path_8811" data-name="Path 8811" class="cls-2" d="M18,16.08a2.912,2.912,0,0,0-1.96.77L8.91,12.7A3.274,3.274,0,0,0,9,12a3.274,3.274,0,0,0-.09-.7l7.05-4.11A2.993,2.993,0,1,0,15,5a3.274,3.274,0,0,0,.09.7L8.04,9.81a3,3,0,1,0,0,4.38l7.12,4.16a2.821,2.821,0,0,0-.08.65A2.92,2.92,0,1,0,18,16.08Z"/>
  </g>
</svg>
