<svg xmlns="http://www.w3.org/2000/svg" width="81.647" height="81.647" viewBox="0 0 81.647 81.647">
  <g id="Group_9622" data-name="Group 9622" transform="translate(-642 -1421)">
    <path id="Path_13193" data-name="Path 13193" d="M40.824,0A40.824,40.824,0,1,1,0,40.824,40.824,40.824,0,0,1,40.824,0Z" transform="translate(642 1421)" fill="#ff5677"/>
    <g id="Group_9585" data-name="Group 9585" transform="translate(662 1443.981)">
      <g id="Group_1611" data-name="Group 1611" transform="translate(0 0)">
        <path id="Path_1111" data-name="Path 1111" d="M20.319-10.149a10.842,10.842,0,0,0-7.911,3.416L10.7-4.951,8.99-6.745a10.857,10.857,0,0,0-7.919-3.421A10.844,10.844,0,0,0-6.836-6.745a11.784,11.784,0,0,0-3.243,8.177A11.81,11.81,0,0,0-6.836,9.611L9.4,26.686a1.794,1.794,0,0,0,1.292.553,1.774,1.774,0,0,0,1.23-.493c.021-.019.04-.039.061-.061q4.064-4.265,8.125-8.531t8.123-8.529a11.792,11.792,0,0,0,3.246-8.178,11.791,11.791,0,0,0-3.246-8.178,10.846,10.846,0,0,0-7.913-3.417" transform="translate(10.079 10.166)" fill="#fff"/>
      </g>
    </g>
  </g>
</svg>
