<svg xmlns="http://www.w3.org/2000/svg" viewBox="0 0 20 20">
  <defs>
    <style>
      .cls-1 {
        fill: #505050;
      }
    </style>
  </defs>
  <g id="Layer_2_2_" transform="translate(0)">
    <g id="Layer_2-2_1_">
      <path id="Path_10167" data-name="Path 10167" class="cls-1" d="M13.344,1.881l4.727,4.727V13.3l-4.727,4.727H6.64L1.929,13.3V6.608L6.64,1.881h6.7M14.132,0H5.868L0,5.868v8.264L5.868,20h8.264L20,14.132V5.868Z"/>
      <path id="Path_10168" data-name="Path 10168" class="cls-1" d="M37.585,44.273l-2.042-6.64H35.5c.08,1.35.113,2.251.113,2.7v3.939H34V35.8h2.444l2.01,6.479h.032L40.608,35.8h2.444v8.489H41.379V40.269c0-.193,0-.4.016-.659s.032-.9.08-1.977h-.048l-2.186,6.64Z" transform="translate(-28.534 -30.044)"/>
    </g>
  </g>
</svg>
