<svg xmlns="http://www.w3.org/2000/svg" xmlns:xlink="http://www.w3.org/1999/xlink" viewBox="0 0 20.807 17.943">
  <defs>
    <style>
      .cls-1 {
        fill: none;
      }

      .cls-2 {
        clip-path: url(#clip-path);
      }

      .cls-3 {
        fill: #959595;
      }
    </style>
    <clipPath id="clip-path">
      <path id="Path_10147" data-name="Path 10147" class="cls-1" d="M0-44.64H20.806V-26.7H0Z" transform="translate(0 44.64)"/>
    </clipPath>
  </defs>
  <g id="Group_8633" data-name="Group 8633" class="cls-2" transform="translate(0 0)">
    <g id="Group_8631" data-name="Group 8631" transform="translate(7.58 5.329)">
      <path id="Path_10145" data-name="Path 10145" class="cls-3" d="M-19.484-5.14a14.607,14.607,0,0,0-3.891-3.454L-24.8-7.173A12.73,12.73,0,0,1-21.67-4.724a11.784,11.784,0,0,1-5.575,3.411,4.212,4.212,0,0,0,1.727-3.411,4.161,4.161,0,0,0-.262-1.486l-6.8,6.8a11.8,11.8,0,0,0,2.842.328A13.321,13.321,0,0,0-19.484-4.331a.689.689,0,0,0,0-.809" transform="translate(32.579 8.594)"/>
    </g>
    <g id="Group_8632" data-name="Group 8632" transform="translate(0 0)">
      <path id="Path_10146" data-name="Path 10146" class="cls-3" d="M-3.537-13.686A11.785,11.785,0,0,1,2.037-17.1a4.211,4.211,0,0,0-1.727,3.41,4.324,4.324,0,0,0,.372,1.749l-.831.83a12.025,12.025,0,0,1-3.389-2.579m16.243-8.92a.991.991,0,0,0-1.378,0L7.634-18.911a11.932,11.932,0,0,0-3.148-.415A13.322,13.322,0,0,0-5.767-14.079a.658.658,0,0,0,0,.831A14.1,14.1,0,0,0-1.635-9.664L-4.7-6.6a.99.99,0,0,0,0,1.377.944.944,0,0,0,.677.284.911.911,0,0,0,.678-.284l16-16a.919.919,0,0,0,.044-1.377" transform="translate(5.915 22.884)"/>
    </g>
  </g>
</svg>
