<svg xmlns="http://www.w3.org/2000/svg" viewBox="0 0 18.62 19.582">
  <defs>
    <style>
      .cls-1 {
        fill: #fff;
        stroke: #fff;
        stroke-width: 0.5px;
      }
    </style>
  </defs>
  <path id="Path_10175" data-name="Path 10175" class="cls-1" d="M17.713,15.089H16.344l-.9-5.964h0c-.521-3.178-2.461-5.459-5.035-6.062A1.834,1.834,0,0,0,9.06,0,1.823,1.823,0,0,0,7.708,3.047c-2.575.587-4.465,2.835-4.954,6.078l-.978,5.98H.407a.407.407,0,0,0,0,.815H6.323v.424a2.738,2.738,0,1,0,5.475,0V15.92h5.915a.4.4,0,0,0,.407-.407A.417.417,0,0,0,17.713,15.089ZM9.06.815a1.01,1.01,0,1,1-1.01,1.01A1.015,1.015,0,0,1,9.06.815Zm1.923,15.529a1.923,1.923,0,1,1-3.846,0V15.92H11ZM2.607,15.089l.961-5.85C4.074,5.834,6.192,3.715,9.06,3.715c2.8,0,5.052,2.216,5.589,5.524l.88,5.85Z" transform="translate(0.25 0.25)"/>
</svg>
