<?xml version="1.0" encoding="utf-8"?>
<!-- Generator: Adobe Illustrator 22.0.0, SVG Export Plug-In . SVG Version: 6.00 Build 0)  -->
<svg version="1.1" id="Capa_1" xmlns="http://www.w3.org/2000/svg" xmlns:xlink="http://www.w3.org/1999/xlink" x="0px" y="0px"
	 viewBox="0 0 20.2 20.2" style="enable-background:new 0 0 20.2 20.2;" xml:space="preserve">
<style type="text/css">
	.st0{fill:none;}
	.st1{fill:#0073FF;}
</style>
<g id="outline-filter_none-24px" transform="translate(0.167 0.167)">
	<g id="Bounding_Boxes">
		<path id="Path_9767" class="st0" d="M0,0h20v20H0V0z"/>
	</g>
	<g id="Outline_1_" transform="translate(-0.167 -0.167)">
		<path id="Path_9768" class="st1" d="M1.8,3.6H0v14.5c0,1,0.8,1.8,1.8,1.8h14.5v-1.8H1.8V3.6z M18.2,0H5.5c-1,0-1.8,0.8-1.8,1.8
			v12.7c0,1,0.8,1.8,1.8,1.8h12.7c1,0,1.8-0.8,1.8-1.8V1.8C20,0.8,19.2,0,18.2,0z M18.2,14.5H5.5V1.8h12.7V14.5z"/>
	</g>
</g>
</svg>
