<svg xmlns="http://www.w3.org/2000/svg" viewBox="0 0 21 11.436">
  <defs>
    <style>
      .cls-1 {
        fill: none;
        stroke: #959595;
        stroke-width: 2px;
      }

      .cls-2 {
        fill: #959595;
      }
    </style>
  </defs>
  <g id="Group_8636" data-name="Group 8636" transform="translate(-77 -747.386)">
    <path id="Path_9528" data-name="Path 9528" class="cls-1" d="M-5566.588,1007.918s8.389-10.239,18.821.161" transform="translate(5644.816 -255)"/>
    <path id="Path_9529" data-name="Path 9529" class="cls-1" d="M-5566.588,1003.583s8.389,10.695,18.822-.168" transform="translate(5644.815 -250.497)"/>
    <ellipse id="Ellipse_2182" data-name="Ellipse 2182" class="cls-2" cx="4.5" cy="5" rx="4.5" ry="5" transform="translate(83 748)"/>
    <path id="Path_9531" data-name="Path 9531" class="cls-2" d="M.881-.057A1.158,1.158,0,0,1,2,1,1.194,1.194,0,0,1,.881,2.1.994.994,0,0,1,0,1,.956.956,0,0,1,.881-.057Z" transform="translate(96 752)"/>
    <path id="Path_9530" data-name="Path 9530" class="cls-2" d="M1,0c.169.148,1,.448,1,1s-.757.914-1,1S0,1.552,0,1,.831-.148,1,0Z" transform="translate(77 752)"/>
  </g>
</svg>
