<svg id="Group_8647" data-name="Group 8647" xmlns="http://www.w3.org/2000/svg" xmlns:xlink="http://www.w3.org/1999/xlink" viewBox="0 0 22.22 20">
  <defs>
    <style>
      .cls-1 {
        fill: none;
      }

      .cls-2 {
        clip-path: url(#clip-path);
      }

      .cls-3 {
        fill: #0073ff;
      }
    </style>
    <clipPath id="clip-path">
      <path id="Path_1112" data-name="Path 1112" class="cls-1" d="M0-64.688H22.22v20H0Z" transform="translate(0 64.688)"/>
    </clipPath>
  </defs>
  <g id="Group_1612" data-name="Group 1612" class="cls-2" transform="translate(0 0)">
    <g id="Group_1611" data-name="Group 1611" transform="translate(0 0)">
      <path id="Path_1111" data-name="Path 1111" class="cls-3" d="M-6.963-7.023,6.175-10.157A5.8,5.8,0,0,0,1.945-8.33l-.914.953L.117-8.337a5.805,5.805,0,0,0-4.234-1.829A5.8,5.8,0,0,0-8.345-8.337a6.3,6.3,0,0,0-1.734,4.372A6.315,6.315,0,0,0-8.345.409L.336,9.538a.959.959,0,0,0,.691.3.949.949,0,0,0,.658-.263l.033-.033L6.062,4.977Q8.234,2.7,10.406.416a6.305,6.305,0,0,0,1.735-4.373,6.3,6.3,0,0,0-1.735-4.373,5.8,5.8,0,0,0-4.231-1.827" transform="translate(10.079 10.166)"/>
    </g>
  </g>
</svg>
