<svg xmlns="http://www.w3.org/2000/svg" xmlns:xlink="http://www.w3.org/1999/xlink" viewBox="0 0 22.22 20">
  <defs>
    <style>
      .cls-1 {
        fill: #505050;
      }

      .cls-2 {
        clip-path: url(#clip-path);
      }
    </style>
    <clipPath id="clip-path">
      <path id="Path_8860" data-name="Path 8860" class="cls-1" d="M0-64.688H22.22v20H0Z" transform="translate(0 64.688)"/>
    </clipPath>
  </defs>
  <g id="Group_8643" data-name="Group 8643" transform="translate(-24.641 -422.385)">
    <g id="Group_4510" data-name="Group 4510" class="cls-2" transform="translate(24.64 422.385)">
      <g id="Group_4509" data-name="Group 4509" transform="translate(0 0)">
        <path id="Path_8859" data-name="Path 8859" class="cls-1" d="M-6.963-7.023A3.92,3.92,0,0,1-4.117-8.285,3.927,3.927,0,0,1-1.265-7.023L.343-5.332a.958.958,0,0,0,.691.3A.95.95,0,0,0,1.693-5.3l.033-.033,1.6-1.683A3.924,3.924,0,0,1,6.175-8.277,3.924,3.924,0,0,1,9.024-7.016a4.485,4.485,0,0,1,0,6.118q-2.052,2.153-4.1,4.307C3.648,4.75,2.332,6.134,1.031,7.5L-6.963-.9a4.487,4.487,0,0,1,0-6.119M6.175-10.157A5.8,5.8,0,0,0,1.945-8.33l-.914.953L.117-8.337a5.805,5.805,0,0,0-4.234-1.829A5.8,5.8,0,0,0-8.345-8.337a6.3,6.3,0,0,0-1.734,4.372A6.315,6.315,0,0,0-8.345.409L.336,9.538a.959.959,0,0,0,.691.3.949.949,0,0,0,.658-.263l.033-.033L6.062,4.977Q8.234,2.7,10.406.416a6.305,6.305,0,0,0,1.735-4.373,6.3,6.3,0,0,0-1.735-4.373,5.8,5.8,0,0,0-4.231-1.827" transform="translate(10.079 10.166)"/>
      </g>
    </g>
  </g>
</svg>
