<?xml version="1.0" encoding="utf-8"?>
<!-- Generator: Adobe Illustrator 23.0.3, SVG Export Plug-In . SVG Version: 6.00 Build 0)  -->
<svg version="1.1" id="Layer_1" xmlns="http://www.w3.org/2000/svg" xmlns:xlink="http://www.w3.org/1999/xlink" x="0px" y="0px"
	 viewBox="0 0 931 900" style="enable-background:new 0 0 931 900;" xml:space="preserve">
<style type="text/css">
	.st0{display:none;}
	.st1{display:inline;fill:#FFFFFF;}
	.st2{display:inline;fill:#0074FF;}
	.st3{display:inline;fill:#FF5667;}
	.st4{display:inline;fill:#F7F7F7;}
	.st5{fill:#FFD943;}
	.st6{fill:#232321;}
</style>
<g class="st0">
	<path class="st1" d="M747.33,166.66C671.77,91.1,571.32,49.49,464.48,49.49c-106.84,0-207.29,41.61-282.84,117.16
		C106.12,242.19,64.5,342.64,64.5,449.48c0,106.85,41.62,207.32,117.14,282.86c75.54,75.52,176,117.16,282.84,117.16
		c106.84,0,207.29-41.62,282.85-117.16C822.87,656.8,864.5,556.34,864.5,449.48C864.5,342.63,822.87,242.18,747.33,166.66z
		 M464.49,648.43c-110.34,0-200.12-89.76-200.12-200.1c0-19.75,2.88-38.84,8.23-56.88l74.69,44.16c-0.45,4.18-0.68,8.42-0.68,12.72
		c0,64.99,52.88,117.87,117.88,117.87s117.88-52.88,117.88-117.87c0-65-52.88-117.88-117.88-117.88c-21.6,0-41.87,5.84-59.3,16.03
		c-2.49,1.46-4.92,3-7.29,4.63l-75.23-43.83c36.27-36.46,86.45-59.06,141.82-59.06c110.34,0,200.11,89.77,200.11,200.12
		C664.61,558.67,574.84,648.43,464.49,648.43z"/>
</g>
<g class="st0">
	<path class="st2" d="M747.33,166.66C671.77,91.1,571.32,49.49,464.48,49.49S257.18,91.1,181.64,166.66
		C106.12,242.19,64.5,342.64,64.5,449.48c0,106.85,41.62,207.32,117.14,282.86c75.54,75.52,175.99,117.16,282.84,117.16
		s207.29-41.62,282.85-117.16C822.87,656.8,864.5,556.34,864.5,449.48C864.5,342.63,822.87,242.18,747.33,166.66z M635.16,549.86
		c-46.86,80.26-141.31,115.39-226.66,90.58l-25.54,43.8l-78.8-45.91l24.92-42.74c-55.75-51.43-77.19-130.78-55.2-203.2l66.88,39.04
		c-7.27,48.86,15.1,99.53,60.3,125.91c59.26,34.58,135.62,14.52,170.19-44.74c34.6-59.27,14.52-135.63-44.74-170.22
		c-45.01-26.27-99.86-20.99-138.8,9.03l-66.95-39.08c51.6-53.77,129.69-74.1,201-52.25l24.88-42.71l78.8,45.93l-24.94,42.79
		C665.78,368.03,682.49,468.79,635.16,549.86z"/>
</g>
<g class="st0">
	<path class="st3" d="M464.48,49.49c-106.84,0-207.29,41.61-282.84,117.16C106.12,242.19,64.5,342.64,64.5,449.48
		c0,106.85,41.62,207.32,117.14,282.86c75.54,75.52,176,117.16,282.84,117.16c106.84,0,207.29-41.62,282.85-117.16
		C822.87,656.8,864.5,556.34,864.5,449.48s-41.63-207.31-117.17-282.83C671.77,91.1,571.32,49.49,464.48,49.49L464.48,49.49z"/>
	<polygon class="st4" points="313.67,413.14 590.04,219.19 480.95,415.56 619.13,495.56 333.07,670.11 437.31,488.29 	"/>
</g>
<g>
	<path class="st5" d="M464.72,49.49C357.88,49.43,257.4,90.97,181.81,166.48C106.25,241.97,64.57,342.4,64.5,449.24
		c-0.07,106.85,41.49,207.34,116.97,282.93c75.5,75.57,175.92,117.27,282.77,117.33c106.84,0.07,207.32-41.49,282.92-116.99
		c75.59-75.5,117.28-175.93,117.34-282.79s-41.5-207.33-117-282.9C671.99,91.23,571.57,49.56,464.72,49.49L464.72,49.49z"/>
	<path class="st6" d="M592.16,310.98l-2.78-3.36l24.13-41.28l-62.55-36.56l-24.08,41.19l-4.3-0.78c-19.02-3.46-37.9-2.25-56.09,3.6
		c-46.6,14.97-79.74,57.26-82.46,105.24c-0.41,7.17,0.46,14.51,2.01,21.31c0.95,2.85,0.84,31.06,57.72,68.98l5.7,3.57
		c18.68,9.97,27.4,28.47,25.57,48.26c-2.18,23.34-20.64,42.11-43.9,44.64c-14.36,1.51-28.08-2.85-38.7-12.39
		c-10.5-9.43-16.51-22.91-16.5-37.01c0-1.05,0.03-2.1,0.1-3.15l-61.49-35.57c-0.9,2.48-1.65,4.85-2.37,7.42
		c-2.79,10.12-4.21,20.65-4.22,31.27c-0.02,27.32,9.54,53.95,26.92,74.98l2.78,3.36l-24.03,41.12l62.54,36.56l23.98-41.03l4.3,0.78
		c39,7.08,77.14-5.4,104.25-32.47c22.23-22.21,34.48-51.75,34.5-83.16c0-3.02-1.07-12.1-1.48-15.34c-0.3-1.29-9.29-39.7-64.6-72.03
		l-1.23-0.67c-14.98-9.14-23.93-24.85-24.08-42.12c-0.24-26.44,21.88-49.37,48.29-50.08c13.51-0.39,26.27,4.57,36.01,14.07
		c9.68,9.44,15.01,22.07,15,35.59c0,1.65-0.08,3.31-0.24,4.95l61.11,35.37c4.71-12.88,7.09-26.41,7.1-40.27
		C619.1,358.63,609.54,332,592.16,310.98z"/>
</g>
</svg>
