<svg xmlns="http://www.w3.org/2000/svg" width="15.875" height="18.5" viewBox="0 0 15.875 18.5">
  <g id="noun_Flag_35341" transform="translate(-0.718 0.186)">
    <path id="Path_13192" data-name="Path 13192" d="M21.272,1.7a.749.749,0,0,0-.835.228,4.046,4.046,0,0,1-3.216,1.107,6.266,6.266,0,0,1-3.512-1.386,6.566,6.566,0,0,0-4-1.583h0A3.727,3.727,0,0,0,6.5,1.663a.752.752,0,0,0-.106.385V17.312a.752.752,0,0,0,1.5,0V10.967a2.346,2.346,0,0,1,1.808-.733h0A5.088,5.088,0,0,1,12.7,11.427,7.707,7.707,0,0,0,17.144,13.2q.183.01.358.01c1.783,0,4.249-1.394,4.249-1.783l.018-9.022A.752.752,0,0,0,21.272,1.7Zm-4.051,10a6.267,6.267,0,0,1-3.512-1.385,6.566,6.566,0,0,0-4-1.583h0a4.062,4.062,0,0,0-1.808.4V2.3a2.354,2.354,0,0,1,1.808-.732h0A5.093,5.093,0,0,1,12.7,2.761a7.7,7.7,0,0,0,4.446,1.774,6,6,0,0,0,3.121-.643v6.866A4.21,4.21,0,0,1,17.221,11.7Z" transform="translate(-5.425)" fill="#cacaca" stroke="#cacaca" stroke-width="0.5"/>
  </g>
</svg>
