<svg xmlns="http://www.w3.org/2000/svg" width="11.958" height="14" viewBox="0 0 11.958 14">
  <g id="noun_Flag_35341" transform="translate(-0.968 -0.064)">
    <path id="Path_13192" data-name="Path 13192" d="M17.965,1.335a.583.583,0,0,0-.649.177,3.147,3.147,0,0,1-2.5.861,4.874,4.874,0,0,1-2.732-1.078A5.107,5.107,0,0,0,8.97.064h0A2.9,2.9,0,0,0,6.476,1.308a.585.585,0,0,0-.083.3V13.479a.585.585,0,0,0,1.17,0V8.544a1.825,1.825,0,0,1,1.406-.57h0A3.957,3.957,0,0,1,11.3,8.9a6,6,0,0,0,3.458,1.379q.142.007.278.007c1.387,0,3.3-1.084,3.3-1.387l.014-7.017A.585.585,0,0,0,17.965,1.335ZM14.814,9.112a4.874,4.874,0,0,1-2.732-1.078A5.106,5.106,0,0,0,8.97,6.8h0a3.159,3.159,0,0,0-1.406.312V1.8a1.831,1.831,0,0,1,1.406-.569h0a3.961,3.961,0,0,1,2.327.928,5.992,5.992,0,0,0,3.458,1.379,4.664,4.664,0,0,0,2.427-.5v5.34A3.274,3.274,0,0,1,14.814,9.112Z" transform="translate(-5.425)" fill="#505050"/>
  </g>
</svg>
