<?xml version="1.0" encoding="utf-8"?>
<!-- Generator: Adobe Illustrator 23.0.3, SVG Export Plug-In . SVG Version: 6.00 Build 0)  -->
<svg version="1.1" xmlns="http://www.w3.org/2000/svg" xmlns:xlink="http://www.w3.org/1999/xlink" x="0px" y="0px"
	 viewBox="0 0 24 17" style="enable-background:new 0 0 24 17;" xml:space="preserve">
<style type="text/css">
	.st0{display:none;}
	.st1{display:inline;}
	.st2{fill:none;stroke:#CACACA;stroke-width:1.5;stroke-linecap:round;stroke-linejoin:round;stroke-miterlimit:10;}
	.st3{fill:none;stroke:#505050;stroke-width:1.5;stroke-linecap:round;stroke-linejoin:round;stroke-miterlimit:10;}
	.st4{fill:none;stroke:#0073FF;stroke-width:1.5;stroke-linecap:round;stroke-linejoin:round;stroke-miterlimit:10;}
</style>
<g id="Layer_1" class="st0">
	<g id="Grupo_9703" transform="translate(0.75 0.75)" class="st1">
		<path id="Trazado_13204" class="st2" d="M2,6.8l3-3l3,3"/>
		<path id="Trazado_13205" class="st2" d="M13.2,13.7H5v-10"/>
		<path id="Trazado_13206" class="st2" d="M20.5,8.7l-3,3l-3-3"/>
		<path id="Trazado_13207" class="st2" d="M8.9,1.8h8.6v10"/>
	</g>
</g>
<g id="Layer_2">
	<g id="Grupo_9703_3_" transform="translate(0.75 0.75)">
		<path id="Trazado_13204_3_" class="st3" d="M2,6.8l3-3l3,3"/>
		<path id="Trazado_13205_3_" class="st3" d="M13.2,13.7H5v-10"/>
		<path id="Trazado_13206_3_" class="st3" d="M20.5,8.7l-3,3l-3-3"/>
		<path id="Trazado_13207_3_" class="st3" d="M8.9,1.8h8.6v10"/>
	</g>
</g>
<g id="Layer_3" class="st0">
	<g id="Grupo_9703_2_" transform="translate(0.75 0.75)" class="st1">
		<path id="Trazado_13204_2_" class="st4" d="M2,6.8l3-3l3,3"/>
		<path id="Trazado_13205_2_" class="st4" d="M13.2,13.7H5v-10"/>
		<path id="Trazado_13206_2_" class="st4" d="M20.5,8.7l-3,3l-3-3"/>
		<path id="Trazado_13207_2_" class="st4" d="M8.9,1.8h8.6v10"/>
	</g>
</g>
</svg>
