<?xml version="1.0" encoding="utf-8"?>
<!-- Generator: Adobe Illustrator 23.0.3, SVG Export Plug-In . SVG Version: 6.00 Build 0)  -->
<svg version="1.1" id="Capa_1" xmlns="http://www.w3.org/2000/svg" xmlns:xlink="http://www.w3.org/1999/xlink" x="0px" y="0px"
	 viewBox="0 0 29.1 29.1" style="enable-background:new 0 0 29.1 29.1;" xml:space="preserve">
<style type="text/css">
	.st0{opacity:0.4;}
	.st1{fill:#222222;}
	.st2{display:none;}
	.st3{display:inline;}
	.st4{fill:#0073FF;}
	.st5{opacity:0.65;fill:#FFFFFF;enable-background:new    ;}
	.st6{fill:#FFFFFF;}
</style>
<g id="Layer_1">
	<g id="Grupo_9748_1_" transform="translate(-329 -95.586)">
		<g id="Grupo_9714-3_1_" transform="translate(329 139.586)">
			<g id="Grupo_9696-3_1_" transform="translate(4.681 7.237)" class="st0">
				<path id="Trazado_13284-3_1_" class="st1" d="M11.4-32.5H5.5v-6l1.4,1.4c0.2,0.2,0.6,0.2,0.8,0c0.2-0.2,0.2-0.5,0-0.7l-2.4-2.4
					c-0.1-0.1-0.2-0.1-0.3-0.1H4.9c-0.2,0-0.3,0.1-0.4,0.2l-2.3,2.3C2-37.6,2-37.2,2.2-37s0.5,0.2,0.8,0l1.4-1.4v6.5
					c0,0.3,0.2,0.5,0.6,0.5l0,0h6.4c0.3,0,0.5-0.2,0.5-0.6C11.9-32.3,11.7-32.5,11.4-32.5L11.4-32.5z"/>
				<path id="Trazado_13285-3_1_" class="st1" d="M17.5-36.3c-0.2-0.2-0.6-0.2-0.8,0l-1.4,1.4v-6.5c0-0.3-0.2-0.5-0.5-0.5l0,0H8
					c-0.3,0-0.5,0.2-0.5,0.6c0,0.3,0.2,0.5,0.5,0.5h6.2v5.9l-1.4-1.4c-0.2-0.2-0.6-0.2-0.8,0s-0.2,0.6,0,0.8l0,0l2.3,2.3
					c0.1,0.1,0.3,0.2,0.4,0.2l0,0l0,0c0.1,0,0.3-0.1,0.4-0.2l2.3-2.4C17.7-35.7,17.7-36.1,17.5-36.3z"/>
			</g>
		</g>
	</g>
</g>
<g id="Layer_1_copy_2" class="st2">
	<g class="st3">
		<g id="Grupo_9696-3_3_" transform="translate(4.681 7.237)">
			<path id="Trazado_13284-3_3_" class="st4" d="M11.4,11.5H5.5v-6l1.4,1.4c0.2,0.2,0.6,0.2,0.8,0c0.2-0.2,0.2-0.5,0-0.7L5.4,3.8
				C5.3,3.7,5.2,3.7,5.1,3.7H5c-0.2,0-0.3,0.1-0.4,0.2L2.2,6.1C2,6.4,2,6.7,2.2,6.9c0.2,0.2,0.5,0.2,0.8,0l1.4-1.4V12
				c0,0.3,0.2,0.5,0.6,0.5l0,0h6.4c0.3,0,0.5-0.2,0.5-0.6C11.9,11.7,11.7,11.5,11.4,11.5L11.4,11.5z"/>
			<path id="Trazado_13285-3_3_" class="st4" d="M17.5,7.7c-0.2-0.2-0.6-0.2-0.8,0l-1.4,1.4V2.6c0-0.3-0.2-0.5-0.5-0.5l0,0H8
				c-0.3,0-0.5,0.2-0.5,0.6C7.5,3,7.7,3.2,8,3.2h6.2v5.9l-1.4-1.4c-0.2-0.2-0.6-0.2-0.8,0s-0.2,0.6,0,0.8l0,0l2.3,2.3
				c0.1,0.1,0.3,0.2,0.4,0.2l0,0l0,0c0.1,0,0.3-0.1,0.4-0.2l2.3-2.4C17.7,8.3,17.7,7.9,17.5,7.7z"/>
		</g>
		<path id="Trazado_13286-3_3_" class="st5" d="M14.6,2.1C7.7,2.1,2.1,7.7,2.1,14.6s5.6,12.5,12.5,12.5s12.5-5.6,12.5-12.5l0,0
			C27.1,7.7,21.5,2.1,14.6,2.1z M16.1,19.8H9.6c-0.3,0-0.5-0.2-0.6-0.5l0,0v-6.5l-1.4,1.4c-0.2,0.2-0.6,0.2-0.8,0
			c-0.2-0.2-0.2-0.5,0-0.7l2.3-2.3C9.2,11.1,9.4,11,9.5,11h0.1c0.3-0.1,0.4,0,0.4,0l2.4,2.4c0.2,0.2,0.2,0.6,0,0.8s-0.6,0.2-0.8,0
			l0,0l-1.4-1.4v6h5.9c0.3,0,0.6,0.2,0.6,0.5C16.6,19.6,16.4,19.8,16.1,19.8L16.1,19.8z M22.2,15.7l-2.3,2.4
			c-0.1,0.1-0.2,0.2-0.4,0.2l0,0l0,0c-0.2,0-0.3-0.1-0.4-0.2l-2.3-2.3c-0.2-0.2-0.2-0.6,0-0.8s0.5-0.2,0.8,0l1.4,1.4v-5.9h-6.2
			c-0.3,0-0.6-0.2-0.6-0.5s0.2-0.6,0.6-0.6h6.7c0.3,0,0.6,0.2,0.6,0.5l0,0v6.5l1.4-1.4c0.2-0.2,0.6-0.2,0.8,0
			C22.4,15.2,22.4,15.5,22.2,15.7L22.2,15.7z"/>
	</g>
</g>
<g id="Layer_1_copy" class="st2">
	<g id="Grupo_9748_2_" transform="translate(-329 -95.586)" class="st3">
		<g id="Grupo_9714-3_2_" transform="translate(329 139.586)">
			<g id="Grupo_9696-3_2_" transform="translate(4.681 7.237)" class="st0">
				<path id="Trazado_13284-3_2_" class="st1" d="M11.4-32.5H5.5v-6l1.4,1.4c0.2,0.2,0.6,0.2,0.8,0c0.2-0.2,0.2-0.5,0-0.7l-2.4-2.4
					c-0.1-0.1-0.2-0.1-0.3-0.1H4.9c-0.2,0-0.3,0.1-0.4,0.2l-2.3,2.3C2-37.6,2-37.2,2.2-37s0.5,0.2,0.8,0l1.4-1.4v6.5
					c0,0.3,0.2,0.5,0.6,0.5l0,0h6.4c0.3,0,0.5-0.2,0.5-0.6C11.9-32.3,11.7-32.5,11.4-32.5L11.4-32.5z"/>
				<path id="Trazado_13285-3_2_" class="st1" d="M17.5-36.3c-0.2-0.2-0.6-0.2-0.8,0l-1.4,1.4v-6.5c0-0.3-0.2-0.5-0.5-0.5l0,0H8
					c-0.3,0-0.5,0.2-0.5,0.6c0,0.3,0.2,0.5,0.5,0.5h6.2v5.9l-1.4-1.4c-0.2-0.2-0.6-0.2-0.8,0s-0.2,0.6,0,0.8l0,0l2.3,2.3
					c0.1,0.1,0.3,0.2,0.4,0.2l0,0l0,0c0.1,0,0.3-0.1,0.4-0.2l2.3-2.4C17.7-35.7,17.7-36.1,17.5-36.3z"/>
			</g>
			<path id="Trazado_13286-3_2_" class="st6" d="M14.6-41.9c-6.9,0-12.5,5.6-12.5,12.5s5.6,12.5,12.5,12.5s12.5-5.6,12.5-12.5l0,0
				C27.1-36.3,21.5-41.9,14.6-41.9z M16.1-24.2H9.6c-0.3,0-0.5-0.2-0.6-0.5l0,0v-6.5l-1.4,1.4c-0.2,0.2-0.6,0.2-0.8,0
				c-0.2-0.2-0.2-0.5,0-0.7l2.3-2.3C9.2-32.9,9.4-33,9.5-33h0.1c0.3-0.1,0.4,0,0.4,0l2.4,2.4c0.2,0.2,0.2,0.6,0,0.8
				c-0.2,0.2-0.6,0.2-0.8,0l0,0l-1.4-1.4v6h5.9c0.3,0,0.6,0.2,0.6,0.5C16.6-24.4,16.4-24.2,16.1-24.2L16.1-24.2z M22.2-28.3
				l-2.3,2.4c-0.1,0.1-0.2,0.2-0.4,0.2l0,0l0,0c-0.2,0-0.3-0.1-0.4-0.2l-2.3-2.3c-0.2-0.2-0.2-0.6,0-0.8c0.2-0.2,0.5-0.2,0.8,0
				l1.4,1.4v-5.9h-6.2c-0.3,0-0.6-0.2-0.6-0.5s0.2-0.6,0.6-0.6h6.7c0.3,0,0.6,0.2,0.6,0.5l0,0v6.5l1.4-1.4c0.2-0.2,0.6-0.2,0.8,0
				C22.4-28.8,22.4-28.5,22.2-28.3L22.2-28.3z"/>
		</g>
	</g>
</g>
</svg>
