<svg xmlns="http://www.w3.org/2000/svg" width="24.996" height="24.995" viewBox="0 0 24.996 24.995">
  <g id="Grupo_9715" data-name="Grupo 9715" transform="translate(-329 -139.586)">
    <g id="Grupo_9714" data-name="Grupo 9714" transform="translate(329 139.586)">
      <g id="Grupo_9696" data-name="Grupo 9696" transform="translate(4.681 7.237)">
        <path id="Trazado_13284" data-name="Trazado 13284" d="M1341.234,568.087h-5.88v-6l1.438,1.439a.55.55,0,0,0,.777-.777l-2.354-2.356a.522.522,0,0,0-.27-.133.532.532,0,0,0-.141-.029.539.539,0,0,0-.435.229l-2.286,2.287a.55.55,0,0,0,.778.777l1.394-1.395v6.5a.55.55,0,0,0,.55.55h6.43a.55.55,0,0,0,0-1.1Z" transform="translate(-1331.921 -558.664)" fill="rgba(34,34,34,0.4)"/>
        <path id="Trazado_13285" data-name="Trazado 13285" d="M1427.76,541.073a.551.551,0,0,0-.777,0l-1.433,1.437v-6.545a.549.549,0,0,0-.55-.55h-6.734a.55.55,0,0,0,0,1.1h6.184v5.946l-1.383-1.388a.55.55,0,1,0-.778.776l2.272,2.28a.54.54,0,0,0,.44.237l.012,0,.012,0a.548.548,0,0,0,.389-.162l2.348-2.355A.55.55,0,0,0,1427.76,541.073Z" transform="translate(-1412.286 -535.416)" fill="rgba(34,34,34,0.4)"/>
      </g>
      <path id="Trazado_13286" data-name="Trazado 13286" d="M1270.451,421.054a12.5,12.5,0,1,0,12.5,12.5A12.5,12.5,0,0,0,1270.451,421.054Zm1.5,17.758h-6.43a.549.549,0,0,1-.55-.55v-6.5l-1.394,1.395a.55.55,0,0,1-.777-.777l2.286-2.287a.54.54,0,0,1,.435-.229.533.533,0,0,1,.141.029.522.522,0,0,1,.27.133l2.354,2.356a.55.55,0,1,1-.778.777l-1.438-1.439v6h5.88a.55.55,0,0,1,0,1.1Zm6.162-4.088-2.348,2.356a.549.549,0,0,1-.389.162l-.012,0-.012,0a.539.539,0,0,1-.44-.237l-2.272-2.28a.55.55,0,0,1,.779-.776l1.383,1.388V429.39h-6.184a.55.55,0,0,1,0-1.1h6.734a.55.55,0,0,1,.55.55v6.545l1.433-1.437a.55.55,0,0,1,.779.776Z" transform="translate(-1257.953 -421.054)" fill="rgba(255,255,255,0.51)"/>
    </g>
  </g>
</svg>
