<svg xmlns="http://www.w3.org/2000/svg" viewBox="0 0 20 20">
  <defs>
    <style>
      .cls-1, .cls-4 {
        fill: none;
      }

      .cls-1 {
        stroke: #505050;
        stroke-width: 1.8px;
      }

      .cls-2 {
        fill: #505050;
      }

      .cls-3 {
        stroke: none;
      }
    </style>
  </defs>
  <g id="Group_8672" data-name="Group 8672" transform="translate(-342 -172)">
    <g id="Ellipse_2232" data-name="Ellipse 2232" class="cls-1" transform="translate(342 172)">
      <circle class="cls-3" cx="10" cy="10" r="10"/>
      <circle class="cls-4" cx="10" cy="10" r="9.1"/>
    </g>
    <path id="Path_10179" data-name="Path 10179" class="cls-2" d="M41.3,38.839h3.387v4.419a9.849,9.849,0,0,1-1.548.371,9.057,9.057,0,0,1-1.484.113,3.712,3.712,0,0,1-2.935-1.129A4.722,4.722,0,0,1,37.7,39.355a4.25,4.25,0,0,1,1.177-3.21A4.521,4.521,0,0,1,42.152,35a6.522,6.522,0,0,1,2.532.516l-.6,1.452a4.231,4.231,0,0,0-1.935-.468,2.393,2.393,0,0,0-1.871.774,3.07,3.07,0,0,0-.71,2.113,3.435,3.435,0,0,0,.565,2.113,1.965,1.965,0,0,0,1.645.726,5.514,5.514,0,0,0,1.145-.113V40.339H41.3Z" transform="translate(310.299 143)"/>
  </g>
</svg>
