<svg xmlns="http://www.w3.org/2000/svg" xmlns:xlink="http://www.w3.org/1999/xlink" viewBox="0 0 238.462 89.348"><defs><style>.a,.e{fill:none;}.b{clip-path:url(#a);}.c{fill:#d3d5d6;}.d{fill:#f9f9f9;}.e{stroke:#95989a;opacity:0;}.f{fill:#ffd952;}.g{fill:#ff5666;}.h{clip-path:url(#e);}.i{fill:#0073ff;}.j{stroke:none;}</style><clipPath id="a"><path class="a" d="M0-89.772H56.815v56.814H0Z" transform="translate(0 89.772)"/></clipPath><clipPath id="e"><path class="a" d="M0-89.772H63.536v63.536H0Z" transform="translate(0 89.772)"/></clipPath></defs><g transform="translate(-560.465 -194)"><g transform="translate(726.357 201)"><g transform="translate(12.428 11.289)"><g class="b"><g transform="translate(1.407 0.426)"><path class="c" d="M-31.849-15.924A27.45,27.45,0,0,1-59.3,11.526,27.45,27.45,0,0,1-86.75-15.924,27.45,27.45,0,0,1-59.3-43.375,27.45,27.45,0,0,1-31.849-15.924" transform="translate(86.75 43.375)"/></g><g transform="translate(0 0)"><path class="d" d="M-26.268-27.929l-1.044.894h0v-8.7a10.079,10.079,0,0,0-5.826-9.125l-.616-.285h0l.327-.595a11.066,11.066,0,0,0,1.363-5.314A11.09,11.09,0,0,0-43.143-62.131,11.091,11.091,0,0,0-54.221-51.054a11.088,11.088,0,0,0,1.049,4.7c.1.209.2.416.315.619l.327.594-.615.285a9.957,9.957,0,0,0-1.266.7,10.093,10.093,0,0,0-4.56,8.422v8.7l-1.045-.894a25.968,25.968,0,0,1-9.111-19.738A26.014,26.014,0,0,1-43.143-73.652,26.015,26.015,0,0,1-17.158-47.666a25.887,25.887,0,0,1-3,12.1,26.128,26.128,0,0,1-6.11,7.637M-51.8-51.053a8.666,8.666,0,0,1,8.656-8.657,8.667,8.667,0,0,1,8.657,8.657A8.667,8.667,0,0,1-43.143-42.4,8.666,8.666,0,0,1-51.8-51.053m22.064,25.632-.313.184c-.673.395-1.354.756-2.023,1.072a25.706,25.706,0,0,1-11.072,2.483,25.7,25.7,0,0,1-11.071-2.483c-.668-.316-1.349-.676-2.023-1.071l-.313-.184V-35.734A7.607,7.607,0,0,1-51.2-43.01l.347-.109.27.246a11.041,11.041,0,0,0,7.444,2.9,11.04,11.04,0,0,0,7.446-2.9l.269-.245.347.109a7.6,7.6,0,0,1,5.346,7.278ZM-43.143-76.074A28.439,28.439,0,0,0-71.55-47.666,28.439,28.439,0,0,0-43.143-19.26,28.439,28.439,0,0,0-14.735-47.666,28.44,28.44,0,0,0-43.143-76.074" transform="translate(71.55 76.074)"/></g></g></g><g class="e"><rect class="j" width="72.571" height="72.571"/><rect class="a" x="0.5" y="0.5" width="71.571" height="71.571"/></g></g><g transform="translate(560.465 201)"><g transform="translate(12.428 11.289)"><g class="b"><g transform="translate(1.407 0.426)"><path class="c" d="M-31.849-15.924A27.45,27.45,0,0,1-59.3,11.526,27.45,27.45,0,0,1-86.75-15.924,27.45,27.45,0,0,1-59.3-43.375,27.45,27.45,0,0,1-31.849-15.924" transform="translate(86.75 43.375)"/></g><g transform="translate(0 0)"><path class="d" d="M-26.268-27.929l-1.044.894h0v-8.7a10.079,10.079,0,0,0-5.826-9.125l-.616-.285h0l.327-.595a11.066,11.066,0,0,0,1.363-5.314A11.09,11.09,0,0,0-43.143-62.131,11.091,11.091,0,0,0-54.221-51.054a11.088,11.088,0,0,0,1.049,4.7c.1.209.2.416.315.619l.327.594-.615.285a9.957,9.957,0,0,0-1.266.7,10.093,10.093,0,0,0-4.56,8.422v8.7l-1.045-.894a25.968,25.968,0,0,1-9.111-19.738A26.014,26.014,0,0,1-43.143-73.652,26.015,26.015,0,0,1-17.158-47.666a25.887,25.887,0,0,1-3,12.1,26.128,26.128,0,0,1-6.11,7.637M-51.8-51.053a8.666,8.666,0,0,1,8.656-8.657,8.667,8.667,0,0,1,8.657,8.657A8.667,8.667,0,0,1-43.143-42.4,8.666,8.666,0,0,1-51.8-51.053m22.064,25.632-.313.184c-.673.395-1.354.756-2.023,1.072a25.706,25.706,0,0,1-11.072,2.483,25.7,25.7,0,0,1-11.071-2.483c-.668-.316-1.349-.676-2.023-1.071l-.313-.184V-35.734A7.607,7.607,0,0,1-51.2-43.01l.347-.109.27.246a11.041,11.041,0,0,0,7.444,2.9,11.04,11.04,0,0,0,7.446-2.9l.269-.245.347.109a7.6,7.6,0,0,1,5.346,7.278ZM-43.143-76.074A28.439,28.439,0,0,0-71.55-47.666,28.439,28.439,0,0,0-43.143-19.26,28.439,28.439,0,0,0-14.735-47.666,28.44,28.44,0,0,0-43.143-76.074" transform="translate(71.55 76.074)"/></g></g></g><g class="e"><rect class="j" width="72.571" height="72.571"/><rect class="a" x="0.5" y="0.5" width="71.571" height="71.571"/></g></g><g transform="translate(689.434 201)"><g transform="translate(12.428 11.289)"><g class="b" transform="translate(0 0)"><g transform="translate(1.407 0.426)"><path class="f" d="M-31.849-15.924A27.45,27.45,0,0,1-59.3,11.526,27.45,27.45,0,0,1-86.75-15.924,27.451,27.451,0,0,1-59.3-43.375,27.451,27.451,0,0,1-31.849-15.924" transform="translate(86.75 43.375)"/></g><g transform="translate(0 0)"><path class="d" d="M-26.268-27.929l-1.044.894h0v-8.7a10.079,10.079,0,0,0-5.826-9.125l-.616-.285h0l.327-.595a11.066,11.066,0,0,0,1.363-5.314A11.09,11.09,0,0,0-43.143-62.131,11.091,11.091,0,0,0-54.221-51.054a11.088,11.088,0,0,0,1.049,4.7c.1.209.2.416.315.619l.327.594-.615.285a9.954,9.954,0,0,0-1.266.7,10.093,10.093,0,0,0-4.56,8.422v8.7l-1.045-.894a25.968,25.968,0,0,1-9.111-19.738A26.014,26.014,0,0,1-43.143-73.652,26.015,26.015,0,0,1-17.158-47.666a25.887,25.887,0,0,1-3,12.1,26.127,26.127,0,0,1-6.11,7.637M-51.8-51.053a8.666,8.666,0,0,1,8.656-8.657,8.667,8.667,0,0,1,8.657,8.657A8.667,8.667,0,0,1-43.143-42.4,8.666,8.666,0,0,1-51.8-51.053M-29.735-25.42l-.313.184c-.673.395-1.354.756-2.023,1.072a25.706,25.706,0,0,1-11.072,2.483,25.7,25.7,0,0,1-11.071-2.483c-.668-.316-1.349-.676-2.023-1.071l-.313-.184V-35.734A7.607,7.607,0,0,1-51.2-43.01l.347-.109.27.246a11.041,11.041,0,0,0,7.444,2.9,11.04,11.04,0,0,0,7.446-2.9l.269-.245.347.109a7.6,7.6,0,0,1,5.346,7.278ZM-43.143-76.074A28.439,28.439,0,0,0-71.55-47.666,28.439,28.439,0,0,0-43.143-19.26,28.439,28.439,0,0,0-14.735-47.666,28.44,28.44,0,0,0-43.143-76.074" transform="translate(71.55 76.074)"/></g></g></g><g class="e"><rect class="j" width="72.571" height="72.571"/><rect class="a" x="0.5" y="0.5" width="71.571" height="71.571"/></g></g><g transform="translate(597.71 201)"><g transform="translate(12.428 11.289)"><g class="b"><g transform="translate(1.407 0.426)"><path class="g" d="M-31.849-15.924A27.45,27.45,0,0,1-59.3,11.526,27.45,27.45,0,0,1-86.75-15.924,27.45,27.45,0,0,1-59.3-43.375,27.45,27.45,0,0,1-31.849-15.924" transform="translate(86.75 43.375)"/></g><g transform="translate(0 0)"><path class="d" d="M-26.268-27.929l-1.044.894h0v-8.7a10.079,10.079,0,0,0-5.826-9.125l-.616-.285h0l.327-.595a11.066,11.066,0,0,0,1.363-5.314A11.09,11.09,0,0,0-43.143-62.131,11.091,11.091,0,0,0-54.221-51.054a11.088,11.088,0,0,0,1.049,4.7c.1.209.2.416.315.619l.327.594-.615.285a9.957,9.957,0,0,0-1.266.7,10.093,10.093,0,0,0-4.56,8.422v8.7l-1.045-.894a25.968,25.968,0,0,1-9.111-19.738A26.014,26.014,0,0,1-43.143-73.652,26.015,26.015,0,0,1-17.158-47.666a25.887,25.887,0,0,1-3,12.1,26.128,26.128,0,0,1-6.11,7.637M-51.8-51.053a8.666,8.666,0,0,1,8.656-8.657,8.667,8.667,0,0,1,8.657,8.657A8.667,8.667,0,0,1-43.143-42.4,8.666,8.666,0,0,1-51.8-51.053m22.064,25.632-.313.184c-.673.395-1.354.756-2.023,1.072a25.706,25.706,0,0,1-11.072,2.483,25.7,25.7,0,0,1-11.071-2.483c-.668-.316-1.349-.676-2.023-1.071l-.313-.184V-35.734A7.607,7.607,0,0,1-51.2-43.01l.347-.109.27.246a11.041,11.041,0,0,0,7.444,2.9,11.04,11.04,0,0,0,7.446-2.9l.269-.245.347.109a7.6,7.6,0,0,1,5.346,7.278ZM-43.143-76.074A28.439,28.439,0,0,0-71.55-47.666,28.439,28.439,0,0,0-43.143-19.26,28.439,28.439,0,0,0-14.735-47.666,28.44,28.44,0,0,0-43.143-76.074" transform="translate(71.55 76.074)"/></g></g></g><g class="e"><rect class="j" width="72.571" height="72.571"/><rect class="a" x="0.5" y="0.5" width="71.571" height="71.571"/></g></g><g transform="translate(638.7 194)"><g transform="translate(13.899 13.899)"><g class="h"><g transform="translate(1.573 0.476)"><path class="i" d="M-25.354-12.676a30.7,30.7,0,0,1-30.7,30.7,30.7,30.7,0,0,1-30.7-30.7,30.7,30.7,0,0,1,30.7-30.7,30.7,30.7,0,0,1,30.7,30.7" transform="translate(86.75 43.375)"/></g><g transform="translate(0 0)"><path class="d" d="M-20.912-22.233l-1.168,1h0v-9.727a11.272,11.272,0,0,0-6.515-10.205l-.689-.318h0l.365-.665a12.375,12.375,0,0,0,1.524-5.943A12.4,12.4,0,0,0-39.783-60.481,12.4,12.4,0,0,0-52.171-48.093,12.4,12.4,0,0,0-51-42.839c.11.234.227.466.352.692l.365.665-.688.318a11.131,11.131,0,0,0-1.416.786,11.287,11.287,0,0,0-5.1,9.419v9.728l-1.168-1A29.041,29.041,0,0,1-68.842-44.305a29.092,29.092,0,0,1,29.059-29.06,29.092,29.092,0,0,1,29.06,29.06,28.95,28.95,0,0,1-3.355,13.532,29.219,29.219,0,0,1-6.833,8.54m-28.551-25.86a9.691,9.691,0,0,1,9.68-9.681A9.692,9.692,0,0,1-30.1-48.092a9.692,9.692,0,0,1-9.681,9.68,9.691,9.691,0,0,1-9.68-9.68m24.674,28.665-.35.205c-.752.442-1.514.845-2.263,1.2a28.747,28.747,0,0,1-12.382,2.777,28.744,28.744,0,0,1-12.381-2.777c-.747-.353-1.508-.756-2.262-1.2l-.35-.205V-30.961A8.508,8.508,0,0,1-48.8-39.1l.389-.122.3.275A12.347,12.347,0,0,0-39.783-35.7a12.346,12.346,0,0,0,8.327-3.245l.3-.274.388.122a8.5,8.5,0,0,1,5.978,8.139ZM-39.783-76.074A31.8,31.8,0,0,0-71.55-44.305,31.8,31.8,0,0,0-39.783-12.538,31.8,31.8,0,0,0-8.014-44.305,31.8,31.8,0,0,0-39.783-76.074" transform="translate(71.55 76.074)"/></g></g></g><g class="e"><rect class="j" width="89.348" height="89.348"/><rect class="a" x="0.5" y="0.5" width="88.348" height="88.348"/></g></g></g></svg>