<?xml version="1.0" encoding="utf-8"?>
<!-- Generator: Adobe Illustrator 23.0.2, SVG Export Plug-In . SVG Version: 6.00 Build 0)  -->
<svg version="1.1" id="Layer_1" xmlns="http://www.w3.org/2000/svg" xmlns:xlink="http://www.w3.org/1999/xlink" x="0px" y="0px"
	 viewBox="0 0 779.2 172.8" style="enable-background:new 0 0 779.2 172.8;" xml:space="preserve">
<style type="text/css">
	.st0{fill:#FFFFFF;}
	.st1{fill:#606060;}
</style>
<title>logo_creary_beta</title>
<image style="overflow:visible;opacity:0.5;enable-background:new    ;" width="1843" height="527" xlink:href="5E383EC55B315F36.png"  transform="matrix(0.2395 0 0 0.2395 184.1396 38.88)">
</image>
<path class="st0" d="M326.2,45.9c-3.7-0.6-7.5-0.9-11.3-0.9c-2,0.1-3.9,0.3-5.9,0.7c-1.1,0.3-2.1,0.6-3.1,1c-2.4,1-4.7,2.3-6.7,3.9
	c-1.9,1.6-3.7,3.4-5.1,5.4c-1.3,1.8-2.3,3.8-2.9,6h-0.5V47.3h-15.5v76.2h16.6v-8.8l0,0V87.1c-0.1-3.8,0.5-7.5,1.6-11.2
	c0.9-3,2.4-5.7,4.4-8.1c1.8-2.1,4-3.8,6.5-5c1.2-0.6,2.5-1,3.8-1.3c1.4-0.3,2.8-0.4,4.2-0.4h1.6h0.5c1.8-3.7,4.1-7.1,6.7-10.3
	C325.4,46.5,326.1,46.1,326.2,45.9z"/>
<path class="st0" d="M213.9,63.5c1.9-1.9,4.2-3.3,6.8-4.1c2.2-0.7,4.6-1.1,6.9-1.1c4.2-0.2,8.3,1.1,11.7,3.6c3.1,2.4,5,5.9,5.6,10.6
	h16.7c-0.3-4.3-1.5-8.4-3.5-12.1c-1.9-3.3-4.5-6.2-7.6-8.5c-3.2-2.3-6.8-4-10.6-5.1c-4.1-1.1-8.3-1.7-12.6-1.7
	c-5.6-0.1-11.2,0.9-16.4,3.2c-4.5,2-8.5,4.9-11.7,8.7c-3.2,3.8-5.6,8.2-7,13c-1.6,5.2-2.4,10.6-2.4,16c0,5.3,0.8,10.5,2.4,15.6
	c1.5,4.6,3.9,8.8,7.1,12.4c3.2,3.5,7.1,6.3,11.5,8.2c5,2.1,10.4,3.1,15.8,3c9.8,0,17.6-2.6,23.6-7.9c5.9-5.2,9.7-12.8,11.2-22.7
	h-16.8c-0.8,5.5-2.8,9.7-5.9,12.8c-3.3,3.1-7.7,4.7-12.1,4.5c-3.2,0.1-6.4-0.7-9.2-2.3c-2.5-1.5-4.6-3.5-6.2-5.9
	c-1.7-2.6-2.9-5.4-3.5-8.4c-0.7-3.1-1.1-6.2-1.1-9.4c0-5.8,0.7-10.4,2.1-14C209.8,68.7,211.6,65.9,213.9,63.5z"/>
<path class="st0" d="M458.4,50c-3-1.8-6.3-3.1-9.8-3.8c-3.6-0.8-7.3-1.2-11-1.2c-4.1,0-8.3,0.4-12.3,1.2c-3.8,0.7-7.5,2.1-10.8,4.1
	c-3.2,2-5.9,4.6-7.9,7.8c-2.2,3.7-3.4,7.9-3.5,12.2h16.7c0.4-4.1,2.1-7.1,5.1-9.1c3-2,6.9-2.9,11.6-2.9c1.8,0,3.5,0.1,5.3,0.4
	c1.8,0.2,3.5,0.7,5.1,1.5c1.5,0.7,2.8,1.8,3.8,3.1c1.1,1.5,1.6,3.4,1.5,5.3c0.2,2-0.5,4-1.8,5.5c-1.4,1.3-3.1,2.3-5,2.7
	c-2.4,0.6-4.8,1.1-7.3,1.2c-2.9,0.3-5.8,0.7-8.7,1.2c-3.5,0.4-7,0.9-10.5,1.7c-3.3,0.7-6.5,1.9-9.4,3.6c-2.8,1.7-5.1,4.1-6.8,6.9
	c-1.7,2.9-2.6,6.8-2.6,11.4c-0.1,3.4,0.7,6.7,2.1,9.8c1.4,2.7,3.3,5.1,5.7,6.9c2.5,1.9,5.3,3.3,8.3,4.1c3.2,0.9,6.5,1.4,9.8,1.4
	c4.7,0,9.5-0.8,14-2.2c4.6-1.3,8.8-3.7,12.3-7.1c-0.1,1.7-0.1,6.3-0.1,6.3v1.5h15.4l0.1-17.5v-39c0.1-3.6-0.8-7.1-2.6-10.2
	C463.6,54.1,461.2,51.8,458.4,50z M451.3,97.5c0.1,2.4-0.6,4.7-1.9,6.7c-1.3,1.8-2.9,3.3-4.8,4.5c-1.9,1.2-3.9,2-6.1,2.5
	c-2,0.5-4,0.7-6,0.7c-1.6,0-3.3-0.2-4.9-0.4c-1.7-0.3-3.4-0.8-5-1.5c-1.5-0.7-2.8-1.7-3.9-3c-1.1-1.3-1.7-3-1.6-4.7
	c-0.1-1.9,0.3-3.8,1.1-5.5c0.7-1.5,1.7-2.7,3-3.7c1.3-1,2.8-1.7,4.4-2.2c1.7-0.5,3.4-1,5.2-1.3c3.7-0.7,7.4-1.2,11.2-1.5
	c3.3-0.2,6.6-1.2,9.4-3L451.3,97.5z"/>
<path class="st0" d="M596.2,45.6L577,103.8h-0.3l-19.8-58.1h-18.3l28.8,77.1l-1.9,5.9c-0.4,1.5-1,3-1.6,4.4
	c-0.5,1.2-1.3,2.3-2.1,3.3c-0.9,0.9-1.9,1.7-3.2,2.1c-1.6,0.5-3.2,0.8-4.8,0.7c-1.3,0-2.7-0.1-4-0.4c-1.3-0.2-2.6-0.5-4-0.7v14.1
	c3.8,0.6,7.7,0.9,11.6,0.9c3.7,0.1,7.5-0.6,10.9-2.1c2.8-1.4,5.2-3.3,7.1-5.7c2-2.5,3.6-5.3,4.8-8.3c1.3-3.1,2.7-6.4,4-9.8
	l29.6-81.5H596.2z"/>
<path class="st0" d="M528.2,45.3c0-0.1-0.1-0.1-0.1-0.1c-3.5-0.3-7-0.2-10.5,0.4c-1.3,0.3-2.6,0.6-3.8,1.1c-2.4,1-4.7,2.3-6.7,3.9
	c-1.9,1.5-3.7,3.4-5.1,5.4c-1.3,1.8-2.3,3.8-2.9,6h-0.4V47.5c0-0.1-0.1-0.2-0.2-0.2h-15.2c-0.1,0-0.2,0.1-0.2,0.2c0,0,0,0,0,0v76.1
	c0,0.1,0.1,0.2,0.1,0.2c0,0,0,0,0,0h16.2c0.1,0,0.2-0.1,0.2-0.2c0,0,0,0,0,0v-8.8l0,0V87.1c-0.1-3.8,0.5-7.6,1.6-11.2
	c0.9-3,2.4-5.7,4.4-8.1c1.8-2.1,4-3.9,6.5-5c2.6-1.1,5.5-1.7,8.3-1.8c4.4-0.2,8.8-0.1,13.2,0.4c0.1,0,0.2-0.1,0.2-0.2c0,0,0,0,0-0.1
	l-4-11L528.2,45.3z"/>
<path class="st0" d="M383.8,58.7c-3.2-4.1-7.2-7.5-11.8-9.9c-5-2.5-10.5-3.8-16.1-3.7c-10.3-0.2-20.1,4.2-26.8,12
	c-3.2,3.7-5.7,8.1-7.3,12.7c-1.7,4.9-2.6,10.1-2.6,15.3c-0.1,5.5,0.7,11,2.4,16.2c1.5,4.6,4,8.9,7.2,12.6c3.2,3.6,7.2,6.4,11.7,8.2
	c5,2,10.4,3,15.9,2.9c4,0,8-0.5,11.8-1.7c3.7-1.1,7.1-2.8,10.2-5c6.4-4.6,10.8-11.5,12.3-19.2h-15.9c-1.2,3.8-3.5,7.1-6.7,9.5
	c-3,2.1-6.9,3.2-11.8,3.2c-3.1,0.1-6.2-0.5-9.1-1.8c-2.4-1.1-4.6-2.8-6.3-4.9c-1.7-2.1-3-4.6-3.8-7.2c-0.8-2.8-1.2-5.6-1.2-8.5h55.8
	c0.7-5.5,0.3-11.1-1.1-16.5C389.2,67.8,386.9,62.9,383.8,58.7z M335.9,78.3c0.1-2.7,0.6-5.4,1.7-7.9c1-2.4,2.4-4.5,4.1-6.4
	c1.7-1.8,3.8-3.3,6.2-4.3c2.5-1.1,5.3-1.6,8-1.5c2.7,0,5.3,0.5,7.7,1.7c2.2,1.1,4.2,2.6,5.9,4.4c1.7,1.9,2.9,4,3.8,6.4
	c0.9,2.4,1.5,5,1.7,7.6H335.9z"/>
<image style="overflow:visible;opacity:0.5;enable-background:new    ;" width="721" height="721" xlink:href="5E383EC55B315F3A.png"  transform="matrix(0.2397 0 0 0.2397 0 0)">
</image>
<path class="st0" d="M138.1,28.7C107.8-1.4,58.9-1.4,28.7,28.9S-1.4,108,28.9,138.2s79.2,30.1,109.3-0.1
	c14.5-14.5,22.6-34.2,22.6-54.7C160.8,62.9,152.6,43.2,138.1,28.7z M83.4,121.9c-21.4,0-38.7-17.3-38.7-38.7c0-3.7,0.5-7.4,1.6-11
	l14.5,8.5c-0.1,0.8-0.1,1.6-0.1,2.5c0,12.6,10.2,22.8,22.8,22.8c12.6,0,22.8-10.2,22.8-22.8c0-12.6-10.2-22.8-22.8-22.8
	c-4,0-8,1.1-11.5,3.1c-0.5,0.3-1,0.6-1.4,0.9L56,55.9c15.1-15.1,39.6-15.1,54.7,0s15.1,39.6,0,54.7
	C103.4,117.8,93.6,121.9,83.4,121.9L83.4,121.9z"/>
<path class="st1" d="M646.2,80.2h3.1c1.1,0,2.2,0.1,3.3,0.2c1,0.1,2.1,0.2,3.1,0.5c0.9,0.2,1.7,0.5,2.5,1c1.5,0.9,2.8,2.2,3.8,3.7
	c1.1,1.7,1.6,3.7,1.5,5.8c0.1,2.2-0.5,4.4-1.7,6.2c-1.2,1.8-3,3.2-5,3.9v0.1c2.5,0.4,4.8,1.8,6.4,3.8c1.5,2.1,2.3,4.6,2.2,7.1
	c0,1.6-0.3,3.3-0.9,4.8c-0.6,1.5-1.5,3-2.6,4.1c-1.2,1.2-2.7,2.2-4.3,2.9c-1.9,0.8-3.9,1.2-5.9,1.1h-21.9V80.2H646.2z M647.8,99.6
	c3.4,0,5.9-0.6,7.4-1.8c1.6-1.3,2.4-3.4,2.2-5.4c0.1-1.3-0.2-2.6-0.8-3.8c-0.5-0.9-1.2-1.6-2.1-2.1c-0.9-0.5-2-0.9-3.1-1
	c-1.2-0.2-2.5-0.2-3.7-0.2h-12.1v14.4L647.8,99.6z M650.8,120.4c2.3,0.1,4.5-0.6,6.2-2.2c1.6-1.6,2.4-3.8,2.2-6
	c0-1.3-0.2-2.5-0.8-3.7c-0.5-0.9-1.3-1.7-2.2-2.3c-1-0.6-2-1-3.1-1.2c-1.2-0.2-2.4-0.4-3.7-0.4h-13.7v15.7L650.8,120.4z"/>
<path class="st1" d="M704.5,80.2v5.1h-25.2v14.4h23.5v5.1h-23.5v15.6h25.4v5.1h-31.5V80.2H704.5z"/>
<path class="st1" d="M707.1,85.2v-5.1h36.2v5.1h-15.1v40.2h-6V85.2H707.1z"/>
<path class="st1" d="M761.5,80.2l17.7,45.3h-6.7l-5-13.6h-19.1l-5.1,13.6h-6.2l17.6-45.3H761.5z M765.7,106.7l-7.5-21.1H758
	l-7.7,21.1H765.7z"/>
</svg>
