<svg id="ic_share_black_24px_1_" data-name="ic_share_black_24px (1)" xmlns="http://www.w3.org/2000/svg" width="18.116" height="18.116" viewBox="0 0 18.116 18.116">
  <path id="Trazado_8810" data-name="Trazado 8810" d="M0,0H18.116V18.116H0Z" fill="none"/>
  <path id="Trazado_8811" data-name="Trazado 8811" d="M14.323,12.628a2.2,2.2,0,0,0-1.48.581L7.461,10.077a2.471,2.471,0,0,0,.068-.528,2.471,2.471,0,0,0-.068-.528l5.322-3.1a2.259,2.259,0,1,0-.725-1.653,2.471,2.471,0,0,0,.068.528L6.8,7.9a2.265,2.265,0,1,0,0,3.306l5.375,3.14a2.129,2.129,0,0,0-.06.491,2.2,2.2,0,1,0,2.2-2.2Z" transform="translate(-0.735 -0.49)" fill="#505050"/>
</svg>
